<?xml version="1.0" encoding="utf-8"?>
<!-- Generator: Adobe Illustrator 16.0.0, SVG Export Plug-In . SVG Version: 6.00 Build 0)  -->
<!DOCTYPE svg PUBLIC "-//W3C//DTD SVG 1.1//EN" "http://www.w3.org/Graphics/SVG/1.1/DTD/svg11.dtd">
<svg version="1.1" id="Layer_1" xmlns="http://www.w3.org/2000/svg" xmlns:xlink="http://www.w3.org/1999/xlink" x="0px" y="0px"
	 width="18px" height="18px" viewBox="0 0 18 18" enable-background="new 0 0 18 18" xml:space="preserve">
<path fill="none" d="M0,0h18v18H0V0z"/>
<path fill="#FFFFFF" d="M9,5.5c0.83,0,1.5-0.67,1.5-1.5S9.83,2.5,9,2.5S7.5,3.17,7.5,4S8.17,5.5,9,5.5z M9,7.5
	C8.17,7.5,7.5,8.17,7.5,9s0.67,1.5,1.5,1.5s1.5-0.67,1.5-1.5S9.83,7.5,9,7.5z M9,12.5c-0.83,0-1.5,0.67-1.5,1.5s0.67,1.5,1.5,1.5
	s1.5-0.67,1.5-1.5S9.83,12.5,9,12.5z"/>
</svg>
